<?xml version="1.0" encoding="utf-8"?>
<!-- Generator: Adobe Illustrator 16.0.0, SVG Export Plug-In . SVG Version: 6.00 Build 0)  -->
<!DOCTYPE svg PUBLIC "-//W3C//DTD SVG 1.1//EN" "http://www.w3.org/Graphics/SVG/1.1/DTD/svg11.dtd">
<svg version="1.1" id="Layer_1" xmlns="http://www.w3.org/2000/svg" xmlns:xlink="http://www.w3.org/1999/xlink" x="0px" y="0px"
	 width="144.635px" height="188.342px" viewBox="0 0 144.635 188.342" enable-background="new 0 0 144.635 188.342"
	 xml:space="preserve">
<g>
	<path fill="#3F816F" d="M58.588,105.242c-0.166,3.59-0.229,7.19-0.54,10.767c-0.191,2.223-0.76,4.414-1.163,6.622
		c-0.453,2.494-0.902,4.99-1.371,7.478c-0.107,0.561-0.281,1.109-0.444,1.655c-0.847,2.769-1.649,5.556-2.58,8.296
		c-0.438,1.308-1.178,2.512-1.692,3.796c-0.207,0.513-0.169,1.12-0.261,1.68c-0.059,0.35-0.054,0.775-0.257,1.02
		c-2.135,2.552-2.945,5.823-4.71,8.569c-1.417,2.21-2.335,4.742-4.253,6.634c-0.143,0.14-0.163,0.39-0.27,0.574
		c-0.53,0.918-1.051,1.851-1.632,2.738c-0.272,0.413-0.831,0.67-1.018,1.104c-1.106,2.542-3.677,3.919-4.97,6.297
		c-0.035,0.062-0.086,0.133-0.147,0.158c-1.979,0.859-2.827,2.838-4.263,4.235c-0.775,0.755-1.798,1.26-2.697,1.89
		c-0.324,0.224-0.679,0.441-0.924,0.734c-1.754,2.108-4.12,3.434-6.292,5.005c-0.117,0.086-0.235,0.168-0.347,0.255
		c-1.724,1.265-2.708,0.994-3.697-0.969c-0.449-0.89-0.953-1.759-1.494-2.604c-0.897-1.412-0.882-3.171-0.01-4.566
		c1.146-1.833,2.348-3.6,2.916-5.782c0.444-1.69,1.515-3.213,2.274-4.824c0.643-1.356,1.234-2.738,1.861-4.103
		c0.357-0.772,0.745-1.535,1.112-2.302c0.063-0.13,0.143-0.255,0.184-0.39c0.866-3.182,2.552-6.027,3.679-9.104
		c0.161-0.429,0.206-0.9,0.301-1.354c0.059-0.275,0.011-0.663,0.181-0.813c1.133-1.015,1.173-2.396,1.53-3.743
		c0.632-2.366,1.649-4.628,2.499-6.935c0.132-0.365,0.247-0.74,0.346-1.114c0.098-0.382,0.036-0.903,0.271-1.132
		c1.806-1.787,1.171-4.321,2.027-6.41c0.722-1.772,0.981-3.73,1.481-5.594c0.146-0.543,0.472-1.038,0.602-1.581
		c0.301-1.236,0.408-2.532,0.816-3.728c1.188-3.506,1.344-7.182,1.851-10.792c0.209-1.504-0.092-3.078-0.138-4.62
		c-0.016-0.502-0.082-1.053,0.1-1.492c0.16-0.4,0.614-0.948,0.959-0.961c1.379-0.062,2.771,0.059,4.158,0.115
		c0.63,0.028,1.271,0.145,1.896,0.074c1.178-0.13,1.637-0.632,1.489-1.785c-0.481-3.679-1.04-7.346-1.57-11.017
		c-0.158-1.099-0.245-2.21-0.489-3.292c-0.307-1.382-0.669-2.756-1.127-4.097c-0.75-2.203-1.887-4.317-2.306-6.573
		c-0.413-2.213-1.395-4.011-2.588-5.793c-0.079-0.117-0.135-0.257-0.171-0.395c-0.684-2.715-2.463-4.783-4.064-6.966
		c-0.382-0.522-0.562-1.196-0.836-1.8c-0.193-0.418-0.306-0.91-0.597-1.244c-1.988-2.287-3.929-4.63-6.062-6.772
		c-1.329-1.333-2.224-3.246-4.378-3.671c-0.332-0.066-0.533-0.714-0.829-1.061c-0.591-0.686-1.192-1.364-1.82-2.019
		c-0.219-0.229-0.576-0.334-0.77-0.579c-1.597-2.03-4.039-2.963-5.929-4.592c-2.394-2.07-5.433-3.085-7.886-5.059
		c-0.813-0.652-1.892-0.997-2.878-1.415c-1.578-0.673-2.073-1.988-1.277-3.528c0.701-1.369,1.389-2.746,2.105-4.108
		c0.959-1.82,1.522-2.073,3.314-1.175c2.168,1.083,4.264,2.305,6.4,3.45c2.286,1.231,4.604,2.415,6.868,3.679
		c0.902,0.505,1.711,1.178,2.565,1.765c3.426,2.355,6.863,4.701,10.279,7.07c0.587,0.411,1.097,0.928,1.643,1.4
		c1.311,1.142,2.58,2.29,4.098,3.228c1.705,1.058,3.082,2.651,4.586,4.031c2.004,1.841,4.004,3.689,5.982,5.558
		c0.382,0.362,0.635,0.868,1.009,1.25c0.878,0.897,1.856,1.698,2.673,2.646c1.422,1.65,2.753,3.381,4.122,5.079
		c0.742,0.92,1.558,1.792,2.211,2.774c0.63,0.944,1.038,2.029,1.647,2.986c0.32,0.495,0.823,0.917,1.33,1.221
		c0.163,0.099,0.729-0.207,0.913-0.467c0.356-0.505,0.647-1.083,0.841-1.675c1.184-3.587,3.626-6.461,5.503-9.653
		c1.173-1.999,2.81-3.722,4.044-5.693c1.463-2.328,3.76-4.057,4.734-6.751c0.209-0.579,1.007-0.941,1.517-1.423
		c0.633-0.602,1.271-1.196,1.854-1.841c0.861-0.954,1.659-1.958,2.508-2.922c1.115-1.27,2.231-2.537,3.381-3.773
		c0.748-0.8,1.691-1.448,2.298-2.335c0.693-1.03,1.219-2.024,2.463-2.644c1.061-0.53,1.79-1.706,2.713-2.544
		c2.496-2.274,5.018-4.513,7.517-6.779c0.285-0.26,0.474-0.627,0.724-0.931c0.364-0.438,0.687-0.941,1.13-1.277
		c1.833-1.397,3.709-2.729,5.558-4.105c0.89-0.663,1.727-1.405,2.634-2.045c0.717-0.502,1.507-0.897,2.262-1.346
		c0.187-0.11,0.38-0.217,0.535-0.362c2.767-2.555,5.896-4.612,9.1-6.565c2.094-1.277,4.182-2.567,6.318-3.776
		c0.462-0.26,1.184-0.405,1.66-0.242c1.562,0.533,3.072,1.219,4.584,1.887c0.273,0.125,0.462,0.436,0.691,0.655
		c0.494,0.467,0.928,1.043,1.499,1.369c1.876,1.063,3.08,2.59,3.694,4.656c0.141,0.472,0.609,0.864,0.967,1.254
		c1.04,1.14,1.993,2.343,1.746,3.993c-0.084,0.592-0.41,1.318-0.867,1.647c-1.062,0.768-2.256,1.364-3.429,1.966
		c-0.975,0.505-2.007,0.908-2.996,1.387c-1.053,0.51-2.093,1.056-3.134,1.596c-0.573,0.298-1.183,0.556-1.69,0.946
		c-4.25,3.292-8.931,5.902-13.53,8.641c-1.227,0.731-2.147,1.96-3.233,2.932c-0.747,0.668-1.51,1.321-2.31,1.928
		c-2.106,1.599-4.232,3.177-6.359,4.75c-1.086,0.808-2.223,1.55-3.279,2.396c-1.055,0.844-2.05,1.765-3.044,2.68
		c-1.925,1.772-3.85,3.539-5.736,5.352c-1.836,1.762-3.621,3.58-5.437,5.367c-0.52,0.515-1.096,0.984-1.591,1.525
		c-1.428,1.565-2.865,3.126-4.228,4.748c-0.918,1.094-1.721,2.284-2.567,3.439c-0.823,1.122-1.626,2.256-2.46,3.373
		c-0.184,0.247-0.434,0.525-0.706,0.612c-0.959,0.306-1.181,1.178-1.579,1.912c-0.399,0.742-0.729,1.522-1.127,2.267
		c-1.346,2.514-2.697,5.023-4.068,7.524c-0.273,0.5-0.646,0.946-0.918,1.443c-0.258,0.461-0.554,0.941-0.648,1.443
		c-0.443,2.386-1.002,4.768-1.183,7.177c-0.263,3.47-0.245,6.96-0.321,10.443c-0.016,0.645,0.143,1.295,0.103,1.938
		c-0.21,3.154,0.433,6.163,1.392,9.138c0.627,1.938,1.336,3.878,1.673,5.872c0.643,3.771,2.886,6.879,4.023,10.436
		c0.349,1.101,0.918,2.136,1.392,3.194c0.059,0.13,0.138,0.281,0.25,0.35c1.184,0.716,1.451,2.068,2.152,3.116
		c1.586,2.374,3.141,4.763,4.725,7.139c0.787,1.186,1.604,2.354,2.404,3.526c0.061,0.092,0.102,0.196,0.173,0.278
		c1.274,1.395,2.483,2.853,3.843,4.164c1.98,1.917,4.076,3.717,6.108,5.581c1.186,1.089,2.339,2.216,3.531,3.294
		c0.25,0.224,0.614,0.385,0.948,0.443c0.837,0.143,1.391,0.536,1.818,1.306c0.237,0.431,0.834,0.686,1.306,0.956
		c1.54,0.875,3.067,1.78,4.658,2.557c2.045,1,4.125,1.94,6.236,2.81c1.747,0.719,2.427,2.085,1.507,3.732
		c-0.711,1.275-0.856,2.598-1.022,3.996c-0.198,1.69-0.609,3.363-1.043,5.013c-0.429,1.626-0.977,3.225-1.517,4.819
		c-0.65,1.93-2.277,2.909-4.049,3.248c-1,0.194-2.387-0.046-3.182-1.158c-0.08-0.117-0.153-0.311-0.258-0.331
		c-1.527-0.304-2.67-1.222-3.781-2.241c-1.239-1.132-2.565-2.17-3.84-3.264c-0.326-0.281-0.546-0.739-0.91-0.903
		c-2.254-1.015-3.623-3.019-5.309-4.655c-1.573-1.527-3.177-3.029-4.617-4.676c-1.479-1.693-2.814-3.513-4.136-5.336
		c-1.091-1.507-2.07-3.093-3.101-4.64c-0.076-0.12-0.158-0.252-0.27-0.337c-1.823-1.405-2.568-3.49-3.545-5.456
		c-0.777-1.563-1.836-2.986-2.715-4.498c-0.278-0.477-0.37-1.056-0.561-1.583c-0.172-0.469-0.225-1.127-0.564-1.359
		c-1.586-1.094-1.759-2.891-2.439-4.441c-0.813-1.874-1.686-3.717-2.496-5.591c-0.234-0.548-0.352-1.147-0.525-1.726
		c-0.229-0.78-0.467-1.563-0.701-2.346c-0.449-1.507-0.818-3.042-1.369-4.513c-0.755-2.017-1.578-3.995-1.428-6.224
		c0.021-0.326-0.125-0.716-0.316-0.994c-1.328-1.923-0.974-4.209-1.295-6.321c-0.535-3.544-0.765-7.134-1.092-10.704
		c-0.076-0.849,0.031-1.716-0.092-2.552c-0.048-0.329-0.492-0.599-0.754-0.897c-0.24,0.271-0.635,0.515-0.688,0.819
		c-0.179,0.946-0.22,1.917-0.316,2.878C58.507,105.234,58.547,105.239,58.588,105.242"/>
	<path fill="#3F816F" d="M61.597,32.095c5.905,0.341,10.038-4.48,9.862-9.646c-0.188-5.553-4.34-8.88-9.161-9.028
		c-5.877-0.176-9.4,4.225-9.687,9.179C52.326,27.531,56.949,32.151,61.597,32.095 M40.623,22.084
		c-0.367-3.924,1.127-7.386,2.945-10.637c1.073-1.925,2.578-3.705,4.562-4.92c0.326-0.202,0.66-0.482,0.847-0.809
		c0.594-1.053,1.539-1.535,2.636-1.904c2.137-0.719,4.207-1.693,6.39-2.224c1.672-0.408,3.473-0.375,5.217-0.397
		c3.528-0.043,6.697,1.333,9.729,2.891c2.619,1.341,4.753,3.391,6.502,5.78c2.453,3.343,3.799,7.032,4.008,11.247
		c0.164,3.284-0.576,6.433-0.774,9.653c-0.023,0.324-0.278,0.66-0.487,0.943c-1.359,1.849-2.729,3.684-4.103,5.52
		c-1.586,2.119-3.725,3.513-6.062,4.635c-1.229,0.591-2.479,1.14-3.738,1.657c-0.521,0.212-1.089,0.298-1.64,0.434
		c-0.744,0.184-1.48,0.431-2.235,0.522c-0.883,0.104-1.795,0.181-2.67,0.074c-1.497-0.184-2.995-0.434-4.454-0.811
		c-1.341-0.347-2.631-0.897-3.941-1.361c-0.103-0.036-0.197-0.11-0.299-0.13c-3.258-0.535-4.943-3.299-7.192-5.208
		c-2.208-1.877-3.457-4.572-4.375-7.203c-0.845-2.422-0.831-5.143-1.198-7.733C40.398,22.097,40.512,22.092,40.623,22.084"/>
</g>
</svg>
