<?xml version="1.0" encoding="utf-8"?>
<!-- Generator: Adobe Illustrator 16.0.0, SVG Export Plug-In . SVG Version: 6.00 Build 0)  -->
<!DOCTYPE svg PUBLIC "-//W3C//DTD SVG 1.1//EN" "http://www.w3.org/Graphics/SVG/1.1/DTD/svg11.dtd">
<svg version="1.1" id="Layer_1" xmlns="http://www.w3.org/2000/svg" xmlns:xlink="http://www.w3.org/1999/xlink" x="0px" y="0px"
	 width="221px" height="221px" viewBox="0 0 221 221" enable-background="new 0 0 221 221" xml:space="preserve">
<g>
	<circle fill="none" stroke="#868686" stroke-width="21" stroke-miterlimit="10" cx="110" cy="110" r="100"/>
	<g enable-background="new    ">
		<path fill="#868686" d="M76.167,161.206V65.771H109.1c6.248,0,11.583,0.594,16.005,1.781c4.422,1.188,8.052,2.883,10.89,5.082
			c2.839,2.201,4.917,4.862,6.237,7.986c1.32,3.125,1.98,6.645,1.98,10.56c0,2.244-0.33,4.39-0.99,6.436s-1.684,3.96-3.069,5.742
			c-1.386,1.781-3.146,3.398-5.28,4.851c-2.135,1.452-4.676,2.685-7.623,3.696c13.111,2.948,19.668,10.032,19.668,21.252
			c0,4.049-0.77,7.788-2.31,11.22c-1.541,3.432-3.784,6.392-6.731,8.877c-2.949,2.486-6.579,4.434-10.891,5.841
			c-4.312,1.409-9.24,2.112-14.784,2.112H76.167z M93.92,107.086h14.19c6.027,0,10.603-1.1,13.728-3.3
			c3.124-2.2,4.687-5.697,4.687-10.494c0-4.972-1.409-8.514-4.224-10.626c-2.816-2.112-7.217-3.168-13.201-3.168H93.92V107.086z
			 M93.92,119.362v27.983h18.018c3.3,0,6.061-0.396,8.282-1.188s4.004-1.849,5.347-3.168c1.341-1.32,2.31-2.859,2.903-4.62
			c0.595-1.76,0.892-3.63,0.892-5.61c0-2.067-0.33-3.927-0.99-5.577c-0.659-1.649-1.694-3.058-3.102-4.224
			c-1.409-1.165-3.212-2.057-5.412-2.673s-4.862-0.924-7.986-0.924H93.92z"/>
	</g>
</g>
</svg>
